/* XPM */
static char * mazacoin16_xpm[] = {
"16 16 157 2",
"  	c None",
". 	c #382816",
"+ 	c #3E2D1B",
"@ 	c #402F1C",
"# 	c #42301C",
"$ 	c #43311E",
"% 	c #44331F",
"& 	c #2C1E0D",
"* 	c #2D1F0D",
"= 	c #322312",
"- 	c #3D2D1B",
"; 	c #42301D",
"> 	c #43321F",
", 	c #45341F",
"' 	c #463520",
") 	c #3D1C0E",
"! 	c #6A2115",
"~ 	c #2D1E0D",
"{ 	c #2F200F",
"] 	c #3C2B19",
"^ 	c #412F1C",
"/ 	c #42311D",
"( 	c #44341F",
"_ 	c #9F9080",
": 	c #615343",
"< 	c #7F2219",
"[ 	c #A52820",
"} 	c #7A2419",
"| 	c #4B3D2F",
"1 	c #8D7E6F",
"2 	c #918373",
"3 	c #574837",
"4 	c #453420",
"5 	c #B6A694",
"6 	c #EFDEC8",
"7 	c #BFAF9D",
"8 	c #4A1B0E",
"9 	c #9B251E",
"0 	c #A32720",
"a 	c #A82A22",
"b 	c #7C6759",
"c 	c #D9C7B2",
"d 	c #FAE8D2",
"e 	c #FFF0DA",
"f 	c #F4E5CF",
"g 	c #A29381",
"h 	c #EBD9C4",
"i 	c #EEDCC7",
"j 	c #77695A",
"k 	c #691C13",
"l 	c #96231C",
"m 	c #9E261F",
"n 	c #813429",
"o 	c #B4A391",
"p 	c #A39380",
"q 	c #F6E6C7",
"r 	c #F8EACF",
"s 	c #F8EDCC",
"t 	c #E8D7BF",
"u 	c #BAAA98",
"v 	c #EAD9C3",
"w 	c #E8D7C2",
"x 	c #A69787",
"y 	c #731D14",
"z 	c #92211B",
"A 	c #9B241E",
"B 	c #755247",
"C 	c #5B5045",
"D 	c #8F8070",
"E 	c #CFC6A4",
"F 	c #DCCEAF",
"G 	c #D2C7A9",
"H 	c #F2E7BF",
"I 	c #A59685",
"J 	c #E5D4BF",
"K 	c #E3D2BE",
"L 	c #B5A695",
"M 	c #6F1C13",
"N 	c #8D2019",
"O 	c #95221B",
"P 	c #67443A",
"Q 	c #453C32",
"R 	c #CCB8A3",
"S 	c #BDB295",
"T 	c #DECAB1",
"U 	c #E1D0BD",
"V 	c #DED4B0",
"W 	c #9D8E7E",
"X 	c #DDCCB9",
"Y 	c #DCCAB8",
"Z 	c #B0A191",
"` 	c #621A11",
" .	c #8A1F19",
"..	c #8E2019",
"+.	c #6C251C",
"@.	c #74695C",
"#.	c #C1B09D",
"$.	c #C0B09B",
"%.	c #E8D5C0",
"&.	c #D2C1AD",
"*.	c #BDAD98",
"=.	c #A59686",
"-.	c #D3C1AF",
";.	c #D4C3B1",
">.	c #998B7C",
",.	c #41160B",
"'.	c #871E18",
").	c #6E5C49",
"!.	c #B5A693",
"~.	c #CAB9A5",
"{.	c #D6C4B0",
"].	c #CFBEAB",
"^.	c #90826C",
"/.	c #C6B6A4",
"(.	c #CBBBAA",
"_.	c #CDBDAC",
":.	c #6A5D50",
"<.	c #6C1A13",
"[.	c #861E18",
"}.	c #895E16",
"|.	c #8E8116",
"1.	c #746923",
"2.	c #807353",
"3.	c #857857",
"4.	c #8B7E2F",
"5.	c #B3A527",
"6.	c #BAAC76",
"7.	c #C1B2A1",
"8.	c #9E9182",
"9.	c #2F1408",
"0.	c #765112",
"a.	c #877B13",
"b.	c #8B7F14",
"c.	c #908316",
"d.	c #978A17",
"e.	c #9D8F18",
"f.	c #A99C23",
"g.	c #AD9F25",
"h.	c #AFA225",
"i.	c #A59868",
"j.	c #4E4237",
"k.	c #302707",
"l.	c #6B610F",
"m.	c #877C13",
"n.	c #8C8014",
"o.	c #928616",
"p.	c #948817",
"q.	c #9F931E",
"r.	c #A69A24",
"s.	c #8C8020",
"t.	c #4A3E17",
"u.	c #433A09",
"v.	c #645A0E",
"w.	c #726810",
"x.	c #746A12",
"y.	c #6E6413",
"z.	c #554A17",
"                                ",
"          . + @ # $ %           ",
"      & * = - @ ; > % , '       ",
"    ) ! ~ { ] ^ / > ( , _ :     ",
"    < [ } { | 1 2 3 4 5 6 7     ",
"  8 9 0 a b c d e f g h i h j   ",
"  k l m n o p q r s t u v w x   ",
"  y z A B C D E F G H I J K L   ",
"  M N O P Q R S T U V W X Y Z   ",
"  `  ...+.@.#.$.%.&.*.=.-.;.>.  ",
"  ,.'. .N ).!.~.{.].^./.(._.:.  ",
"    <.[.}.|.1.2.3.4.5.6.7.8.    ",
"    9.0.a.b.c.d.e.f.g.h.i.j.    ",
"      k.l.m.n.o.p.q.r.s.t.      ",
"          u.v.w.x.y.z.          ",
"                                "};
