/* XPM */
static char * mazacoin32_xpm[] = {
"32 32 499 2",
"  	c None",
". 	c #3D2D1B",
"+ 	c #3F2E1B",
"@ 	c #3F2E1C",
"# 	c #402F1C",
"$ 	c #41301C",
"% 	c #42301D",
"& 	c #43311E",
"* 	c #44321F",
"= 	c #44341F",
"- 	c #2E200E",
"; 	c #2F200F",
"> 	c #3B2C19",
", 	c #3D2D1A",
"' 	c #3E2D1B",
") 	c #412F1C",
"! 	c #43321F",
"~ 	c #43331F",
"{ 	c #463520",
"] 	c #2D1E0D",
"^ 	c #2E1F0E",
"/ 	c #2F200E",
"( 	c #372816",
"_ 	c #402E1C",
": 	c #42301C",
"< 	c #44331F",
"[ 	c #453520",
"} 	c #2B1D0D",
"| 	c #2C1D0D",
"1 	c #2C1E0D",
"2 	c #332413",
"3 	c #43301E",
"4 	c #43321E",
"5 	c #443420",
"6 	c #453420",
"7 	c #291B0C",
"8 	c #411D0F",
"9 	c #2D1F0D",
"0 	c #302110",
"a 	c #3B2B19",
"b 	c #42301E",
"c 	c #45341F",
"d 	c #685A4A",
"e 	c #501E11",
"f 	c #A22820",
"g 	c #752318",
"h 	c #372716",
"i 	c #3E2E1B",
"j 	c #B0A08F",
"k 	c #E6D4C0",
"l 	c #776959",
"m 	c #331B0C",
"n 	c #93251D",
"o 	c #A62720",
"p 	c #A72921",
"q 	c #782418",
"r 	c #2E1F0D",
"s 	c #2F210F",
"t 	c #342412",
"u 	c #B4A492",
"v 	c #F0DEC9",
"w 	c #EFDDC8",
"x 	c #DBCAB6",
"y 	c #544533",
"z 	c #26180A",
"A 	c #762117",
"B 	c #9F261F",
"C 	c #A32720",
"D 	c #A62820",
"E 	c #A92922",
"F 	c #7C2519",
"G 	c #312210",
"H 	c #352512",
"I 	c #6D5E50",
"J 	c #AD9E8D",
"K 	c #C5B4A2",
"L 	c #C9B8A6",
"M 	c #B6A795",
"N 	c #756656",
"O 	c #483620",
"P 	c #473520",
"Q 	c #B7A895",
"R 	c #EFDEC8",
"S 	c #EFDEC9",
"T 	c #EDDBC6",
"U 	c #B0A190",
"V 	c #381A0C",
"W 	c #95251D",
"X 	c #9E251F",
"Y 	c #A2261F",
"Z 	c #A42720",
"` 	c #A82921",
" .	c #B02B24",
"..	c #6E2518",
"+.	c #483A2C",
"@.	c #B2A290",
"#.	c #E5D2BC",
"$.	c #F5E2CC",
"%.	c #FBE9D3",
"&.	c #FEEDD6",
"*.	c #FFF0D9",
"=.	c #FEEED8",
"-.	c #CCBCA9",
";.	c #594937",
">.	c #A19280",
",.	c #F1DFCA",
"'.	c #EEDCC6",
").	c #EEDDC7",
"!.	c #ECDBC6",
"~.	c #E4D3BF",
"{.	c #5C4E3D",
"].	c #231809",
"^.	c #681E14",
"/.	c #99241D",
"(.	c #9C251E",
"_.	c #A1261F",
":.	c #A1271F",
"<.	c #9C2920",
"[.	c #49382B",
"}.	c #C0AE9C",
"|.	c #DDCAB5",
"1.	c #E6D3BC",
"2.	c #FBE7D2",
"3.	c #FEECD5",
"4.	c #FFF1DB",
"5.	c #FFF4DD",
"6.	c #FEEDD7",
"7.	c #E3D1BC",
"8.	c #645442",
"9.	c #DCCAB5",
"0.	c #ECDAC5",
"a.	c #ECDBC5",
"b.	c #EAD8C3",
"c.	c #E9D8C3",
"d.	c #A49584",
"e.	c #231708",
"f.	c #802018",
"g.	c #95231C",
"h.	c #A82922",
"i.	c #572213",
"j.	c #A89888",
"k.	c #D2BFAB",
"l.	c #D0BEA9",
"m.	c #D4C1AB",
"n.	c #EEDAC4",
"o.	c #FEECD6",
"p.	c #FFEFD9",
"q.	c #FFF3DC",
"r.	c #F7EBD4",
"s.	c #F4E5CF",
"t.	c #FAE8D3",
"u.	c #CAB9A6",
"v.	c #837464",
"w.	c #EFDDC7",
"x.	c #E7D6C2",
"y.	c #C9B9A7",
"z.	c #261708",
"A.	c #90211B",
"B.	c #94221B",
"C.	c #98231C",
"D.	c #9C241E",
"E.	c #92261D",
"F.	c #5C5044",
"G.	c #B8A795",
"H.	c #928372",
"I.	c #655748",
"J.	c #585040",
"K.	c #F7EEC0",
"L.	c #F5E5C3",
"M.	c #F2E0C8",
"N.	c #F2E7C0",
"O.	c #F9EFC1",
"P.	c #F9EEC1",
"Q.	c #EDDCBA",
"R.	c #E9D7C2",
"S.	c #6F6050",
"T.	c #D8C7B3",
"U.	c #EBD9C4",
"V.	c #E8D6C1",
"W.	c #E8D6C2",
"X.	c #E6D5C0",
"Y.	c #E1D0BC",
"Z.	c #43180C",
"`.	c #93211B",
" +	c #9A241D",
".+	c #A0261F",
"++	c #772218",
"@+	c #7D7163",
"#+	c #817465",
"$+	c #43392F",
"%+	c #483E31",
"&+	c #6C5F50",
"*+	c #C5BD9A",
"=+	c #FBF6C8",
"-+	c #EDE5BA",
";+	c #D6CCA9",
">+	c #D1C8A5",
",+	c #F1EABD",
"'+	c #FFF8C9",
")+	c #E7D5B7",
"!+	c #A19281",
"~+	c #E6D4BF",
"{+	c #E5D4BF",
"]+	c #E2D1BD",
"^+	c #6C5D4E",
"/+	c #47180C",
"(+	c #8D211A",
"_+	c #90211A",
":+	c #92211B",
"<+	c #98221C",
"[+	c #9D251E",
"}+	c #671F14",
"|+	c #72665A",
"1+	c #554A3F",
"2+	c #3F372D",
"3+	c #A08E7B",
"4+	c #C0AF9D",
"5+	c #B4A392",
"6+	c #D5CEA9",
"7+	c #D8C4A8",
"8+	c #DECCB8",
"9+	c #D3C3B1",
"0+	c #AA9C8C",
"a+	c #EFE8BB",
"b+	c #EFE2BB",
"c+	c #B0A090",
"d+	c #A19381",
"e+	c #DFCEBB",
"f+	c #736557",
"g+	c #47170C",
"h+	c #8C2019",
"i+	c #8D201A",
"j+	c #8F211A",
"k+	c #641E13",
"l+	c #665B50",
"m+	c #483F35",
"n+	c #40372D",
"o+	c #CCB6A0",
"p+	c #D8C5B1",
"q+	c #A89987",
"r+	c #DBD5AD",
"s+	c #D2C4A5",
"t+	c #EDDAC5",
"u+	c #EFDDC9",
"v+	c #D0BFAE",
"w+	c #CDC3A0",
"x+	c #EBDFB8",
"y+	c #AD9D8D",
"z+	c #9E8F7E",
"A+	c #E0CFBB",
"B+	c #DDCCB9",
"C+	c #DECDBA",
"D+	c #DECDB9",
"E+	c #726456",
"F+	c #41170B",
"G+	c #8A2019",
"H+	c #8D2019",
"I+	c #95221B",
"J+	c #6D1E14",
"K+	c #5C5247",
"L+	c #4C433A",
"M+	c #3E372D",
"N+	c #B8A28C",
"O+	c #D3C0AC",
"P+	c #D5CFA8",
"Q+	c #E2D2B4",
"R+	c #F3E0CB",
"S+	c #F0DDC8",
"T+	c #D6C6B3",
"U+	c #D5CBA6",
"V+	c #D6C8A9",
"W+	c #968778",
"X+	c #A99A89",
"Y+	c #DCCCB8",
"Z+	c #DAC9B6",
"`+	c #DACAB7",
" @	c #D9C8B6",
".@	c #D8C7B5",
"+@	c #66594A",
"@@	c #241507",
"#@	c #871F19",
"$@	c #8A1F19",
"%@	c #8E2019",
"&@	c #811F17",
"*@	c #41372D",
"=@	c #63584E",
"-@	c #4C4134",
";@	c #A3927F",
">@	c #CFBDAA",
",@	c #C3B2A0",
"'@	c #AA9E83",
")@	c #E5D3BC",
"!@	c #F1DEC9",
"~@	c #C5B49E",
"{@	c #D0C5A0",
"]@	c #BFAF9E",
"^@	c #625445",
"/@	c #C5B5A2",
"(@	c #D7C6B3",
"_@	c #D5C4B2",
":@	c #D6C5B3",
"<@	c #D6C4B3",
"[@	c #D1C0AF",
"}@	c #40301E",
"|@	c #1F1406",
"1@	c #761D15",
"2@	c #881F19",
"3@	c #45190C",
"4@	c #74695C",
"5@	c #9F907F",
"6@	c #CCBAA7",
"7@	c #C8B7A4",
"8@	c #CDBCA9",
"9@	c #E1CFBA",
"0@	c #B1A190",
"a@	c #C0B09F",
"b@	c #AFA08F",
"c@	c #726455",
"d@	c #D4C2B0",
"e@	c #CFBEAC",
"f@	c #D0BEAC",
"g@	c #D2C2B0",
"h@	c #D2C1AF",
"i@	c #B7A797",
"j@	c #1F1306",
"k@	c #5E1A10",
"l@	c #871E18",
"m@	c #891F19",
"n@	c #8B1F19",
"o@	c #8F201A",
"p@	c #3B2F24",
"q@	c #A39583",
"r@	c #BCAC99",
"s@	c #C5B4A1",
"t@	c #CBBAA6",
"u@	c #D1BEAA",
"v@	c #D6C4AF",
"w@	c #DFCEB9",
"x@	c #DDCBB7",
"y@	c #DAC8B5",
"z@	c #C3B3A1",
"A@	c #534537",
"B@	c #BDAD9C",
"C@	c #CBBBA9",
"D@	c #CBBBAA",
"E@	c #CFBEAD",
"F@	c #D0C0AF",
"G@	c #938677",
"H@	c #3C2C1A",
"I@	c #301508",
"J@	c #821E17",
"K@	c #881E18",
"L@	c #91211A",
"M@	c #795315",
"N@	c #3C3124",
"O@	c #958777",
"P@	c #BAAB98",
"Q@	c #C1B19E",
"R@	c #C8B7A3",
"S@	c #C9B8A4",
"T@	c #D4C2AF",
"U@	c #D5C4B0",
"V@	c #AFA090",
"W@	c #51432F",
"X@	c #A49668",
"Y@	c #C6B6A5",
"Z@	c #C6B7A6",
"`@	c #CABAA9",
" #	c #CBBCAA",
".#	c #C6B6A6",
"+#	c #4F4234",
"@#	c #1E1306",
"##	c #641912",
"$#	c #8C6017",
"%#	c #908316",
"&#	c #867915",
"*#	c #4B400E",
"=#	c #55493D",
"-#	c #857869",
";#	c #988A7A",
">#	c #988B7A",
",#	c #908273",
"'#	c #615447",
")#	c #61551C",
"!#	c #A99B25",
"~#	c #BAAC28",
"{#	c #BCAD76",
"]#	c #C0B1A0",
"^#	c #C1B1A0",
"/#	c #C6B7A7",
"(#	c #C5B6A6",
"_#	c #95887A",
":#	c #3A2B19",
"<#	c #2A1407",
"[#	c #7D1D16",
"}#	c #851E18",
"|#	c #861E18",
"1#	c #875D16",
"2#	c #887B14",
"3#	c #8C8015",
"4#	c #918416",
"5#	c #968817",
"6#	c #857815",
"7#	c #726513",
"8#	c #6B5F12",
"9#	c #6D6213",
"0#	c #7B6F15",
"a#	c #9D9023",
"b#	c #B3A526",
"c#	c #B2A426",
"d#	c #B1A326",
"e#	c #BCAD75",
"f#	c #BEAF9E",
"g#	c #BFB0A0",
"h#	c #B3A596",
"i#	c #45382B",
"j#	c #42160B",
"k#	c #811D17",
"l#	c #855D15",
"m#	c #867A13",
"n#	c #897D13",
"o#	c #897E14",
"p#	c #8D8115",
"q#	c #918516",
"r#	c #948817",
"s#	c #978A18",
"t#	c #9B8E18",
"u#	c #9F9119",
"v#	c #A09319",
"w#	c #AA9D22",
"x#	c #ADA025",
"y#	c #AEA125",
"z#	c #B1A426",
"A#	c #B7A972",
"B#	c #BBAD9D",
"C#	c #64594C",
"D#	c #47310B",
"E#	c #817612",
"F#	c #867B13",
"G#	c #8A7E14",
"H#	c #8B7F14",
"I#	c #8E8215",
"J#	c #938716",
"K#	c #968A17",
"L#	c #988B18",
"M#	c #9A8D18",
"N#	c #A2951E",
"O#	c #AA9E25",
"P#	c #AC9F25",
"Q#	c #AB9E25",
"R#	c #AD9F25",
"S#	c #AFA226",
"T#	c #6B603C",
"U#	c #352717",
"V#	c #423A09",
"W#	c #7B7011",
"X#	c #887D13",
"Y#	c #938717",
"Z#	c #958817",
"`#	c #9B8E1A",
" $	c #A89C24",
".$	c #A99D24",
"+$	c #A99C25",
"@$	c #A59924",
"#$	c #5F541A",
"$$	c #342616",
"%$	c #2B2107",
"&$	c #655B0E",
"*$	c #847913",
"=$	c #8A7F14",
"-$	c #8E8315",
";$	c #908515",
">$	c #918616",
",$	c #968A18",
"'$	c #A39721",
")$	c #A69A23",
"!$	c #A29523",
"~$	c #82771E",
"{$	c #3F3416",
"]$	c #1E1406",
"^$	c #312808",
"/$	c #5F560D",
"($	c #7A7011",
"_$	c #8F8415",
":$	c #928717",
"<$	c #948717",
"[$	c #8C801B",
"}$	c #766B1C",
"|$	c #423716",
"1$	c #302414",
"2$	c #201406",
"3$	c #251A07",
"4$	c #433A0A",
"5$	c #483F0B",
"6$	c #49400B",
"7$	c #443C0B",
"8$	c #261C08",
"9$	c #261A0B",
"0$	c #2C2112",
"                                                                ",
"                                                                ",
"                      . . + @ # $ % & * =                       ",
"                  - ; > , ' @ ) $ % & ! ~ = {                   ",
"                ] ^ / ( , + _ # : % & ! < < = [                 ",
"            } | 1 ^ / 2 , ' _ ) % 3 4 ~ < = 5 6 { {             ",
"          7 8 | 1 9 / 0 a ' @ # : b & ! = = 6 c [ d {           ",
"          e f g 1 ] ^ ; h i ) : & 4 ! ~ < = 6 [ j k l           ",
"        m n o p q ] r s t # % ! c { { 6 6 = 6 u v w x y         ",
"      z A B C D E F / G H I J K L M N O P { Q R v S T U c       ",
"      V W X Y Z `  ...+.@.#.$.%.&.*.=.-.;.>.,.'.).w !.~.{.      ",
"    ].^./.(._.:.` <.[.}.|.1.2.3.4.5.5.6.7.8.9.T 0.a.b.c.d.4     ",
"    e.f.g./.X B h.i.j.k.l.m.n.o.p.q.r.s.t.u.v.w.b.c.c.x.y.4     ",
"    z.A.B.C.D.B E.F.G.H.I.J.K.L.M.N.O.P.Q.R.S.T.U.V.W.X.Y.6     ",
"    Z.A.`.B. +.+++@+#+$+%+&+*+=+-+;+>+,+'+)+!+@.V.~+X.{+]+^+    ",
"    /+(+_+:+<+[+}+|+1+2+3+4+5+6+7+8+9+0+a+b+c+d+{+Y.Y.Y.e+f+    ",
"    g+h+i+j+`. +k+l+m+n+o+p+q+r+s+t+u+v+w+x+y+z+A+B+C+D+B+E+    ",
"    F+G+h+H+_+I+J+K+L+M+N+O+@.P+Q+R+S+T+U+V+W+X+Y+Z+`+ @.@+@    ",
"    @@#@$@h+%@_+&@*@=@-@;@>@,@'@)@!@b.~@{@]@^@/@(@_@:@<@[@}@    ",
"    |@1@2@$@h+H+_+3@4@5@4+6@7@8@9@R.Y.0@a@b@c@d@e@f@g@h@i@,     ",
"    j@k@l@m@$@n@o@&@p@q@r@s@t@u@v@w@x@y@z@A@B@C@D@E@v+F@G@H@    ",
"      I@J@K@l@$@H+L@M@N@O@P@Q@R@S@T@U@V@W@X@Y@Y@Z@`@ #.#+#      ",
"      @###l@l@l@m@$#%#&#*#=#-#;#>#,#'#)#!#~#{#]#^#/#(#_#:#      ",
"        <#[#}#|#1#2#3#4#5#6#7#8#9#0#a#b#c#d#c#e#f#g#h#i#        ",
"          j#k#l#m#n#o#p#q#r#s#t#u#v#w#x#y#x#z#c#A#B#C#          ",
"          @#D#E#F#m#G#H#H#I#J#K#L#M#N#O#P#Q#x#R#S#T#U#          ",
"            @#V#W#m#X#o#o#p#q#Y#r#Z#`# $ $.$+$@$#$$$            ",
"                %$&$*$m#=$-$;$>$Y#Y#,$'$)$!$~${$                ",
"                  ]$^$/$($=$-$_$>$:$<$[$}$|$1$                  ",
"                      |@2$3$4$5$6$7$8$9$0$                      ",
"                                                                ",
"                                                                "};
